<svg width="22" height="22" viewBox="0 0 22 22" fill="none" xmlns="http://www.w3.org/2000/svg">
<path d="M1 1H2.78025C3.88523 1 4.75488 1.93 4.6628 3L3.8136 12.96C3.67036 14.59 4.99019 15.99 6.66812 15.99H17.5644C19.0377 15.99 20.3269 14.81 20.4394 13.38L20.9919 5.88C21.1147 4.22 19.8255 2.87 18.1169 2.87H4.90836M8.16189 7H20.4394M16.8585 19.75C16.8585 20.4404 16.2859 21 15.5796 21C14.8732 21 14.3007 20.4404 14.3007 19.75C14.3007 19.0596 14.8732 18.5 15.5796 18.5C16.2859 18.5 16.8585 19.0596 16.8585 19.75ZM8.67346 19.75C8.67346 20.4404 8.10087 21 7.39455 21C6.68823 21 6.11564 20.4404 6.11564 19.75C6.11564 19.0596 6.68823 18.5 7.39455 18.5C8.10087 18.5 8.67346 19.0596 8.67346 19.75Z" stroke="#505050" stroke-width="1.5" stroke-miterlimit="10" stroke-linecap="round" stroke-linejoin="round"/>
</svg>
