<svg width="20" height="20" viewBox="0 0 20 20" fill="none" xmlns="http://www.w3.org/2000/svg">
<path d="M15.386 20H4.61395C2.06512 20 0 17.9233 0 15.3717V8.47114C0 7.20464 0.781395 5.61221 1.78605 4.82996L6.8 0.918711C8.30698 -0.254663 10.7163 -0.310538 12.2791 0.788336L18.0279 4.82064C19.1349 5.59358 20 7.2512 20 8.60151V15.381C20 17.9233 17.9349 20 15.386 20ZM7.65581 2.01758L2.64186 5.92883C1.9814 6.45033 1.39535 7.63302 1.39535 8.47114V15.3717C1.39535 17.1504 2.83721 18.6031 4.61395 18.6031H15.386C17.1628 18.6031 18.6047 17.1597 18.6047 15.381V8.60151C18.6047 7.70752 17.9628 6.46895 17.2279 5.96608L11.4791 1.93377C10.4186 1.18877 8.66977 1.22602 7.65581 2.01758Z" fill="#505050"/>
<path d="M10 16.275C9.6186 16.275 9.30233 15.9584 9.30233 15.5766V12.7828C9.30233 12.401 9.6186 12.0844 10 12.0844C10.3814 12.0844 10.6977 12.401 10.6977 12.7828V15.5766C10.6977 15.9584 10.3814 16.275 10 16.275Z" fill="#505050"/>
</svg>
