<svg width="22" height="24" viewBox="0 0 22 24" fill="none" xmlns="http://www.w3.org/2000/svg">
<path d="M10.9968 10.2825C10.5296 10.2825 10.1421 9.90581 10.1421 9.45152V5.76177C10.1421 5.30748 10.5296 4.93074 10.9968 4.93074C11.4641 4.93074 11.8516 5.30748 11.8516 5.76177V9.45152C11.8516 9.91689 11.4641 10.2825 10.9968 10.2825Z" fill="#505050"/>
<path d="M11.0196 21.1745C8.07934 21.1745 5.15042 20.7202 2.35827 19.8116C1.32118 19.4792 0.534819 18.759 0.192922 17.8504C-0.148974 16.9418 -0.035009 15.9003 0.523422 14.9917L1.97078 12.6427C2.28989 12.1219 2.5748 11.1468 2.5748 10.5374V8.21053C2.5748 3.67867 6.35846 0 11.0196 0C15.6808 0 19.4645 3.67867 19.4645 8.21053V10.5374C19.4645 11.1357 19.7494 12.1219 20.0685 12.6427L21.5159 14.9917C22.0515 15.856 22.1427 16.8864 21.7894 17.8283C21.4361 18.7701 20.6611 19.4903 19.681 19.8116C16.8889 20.7313 13.96 21.1745 11.0196 21.1745ZM11.0196 1.67313C7.30437 1.67313 4.28428 4.60942 4.28428 8.22161V10.5485C4.28428 11.446 3.91959 12.7424 3.44094 13.5069L1.99358 15.867C1.69727 16.3435 1.62889 16.8532 1.79984 17.2964C1.97078 17.7396 2.35827 18.072 2.9053 18.2493C8.14771 19.9446 13.9144 19.9446 19.1568 18.2493C19.6468 18.0942 20.0229 17.7396 20.1939 17.2742C20.3762 16.8089 20.3192 16.2992 20.0571 15.867L18.6097 13.518C18.1311 12.7535 17.7664 11.4571 17.7664 10.5596V8.23269C17.755 4.60942 14.7349 1.67313 11.0196 1.67313Z" fill="#505050"/>
<path d="M10.9968 24C9.77741 24 8.58078 23.5125 7.71464 22.6704C6.8485 21.8283 6.34705 20.6648 6.34705 19.4792H8.05654C8.05654 20.2327 8.37564 20.964 8.92267 21.4958C9.46971 22.0277 10.2219 22.338 10.9968 22.338C12.6152 22.338 13.9372 21.0526 13.9372 19.4792H15.6466C15.6466 21.9723 13.5611 24 10.9968 24Z" fill="#505050"/>
</svg>
