<svg width="24" height="24" viewBox="0 0 24 24" fill="none" xmlns="http://www.w3.org/2000/svg">
<path d="M11.9999 0C15.3135 0 18.3135 1.34316 20.4852 3.51465C22.6568 5.68613 24 8.68633 24 11.9998C24 15.3137 22.6568 18.3137 20.4852 20.4852C18.3135 22.6566 15.3135 24 11.9999 24C8.68626 24 5.68628 22.6568 3.51482 20.4854C1.34335 18.3139 0 15.3137 0 11.9998C0 8.68633 1.34315 5.68613 3.51482 3.51465C5.68648 1.34316 8.68626 0 11.9999 0ZM6.74916 13.1209C6.49272 12.8889 6.4728 12.4928 6.70502 12.2363C6.93705 11.9799 7.33314 11.96 7.58959 12.192L10.2148 14.5725L16.3755 8.12012C16.6143 7.86895 17.0118 7.85918 17.2628 8.09785C17.5137 8.33672 17.5237 8.73398 17.2848 8.98496L10.7017 15.8799L10.7009 15.8791C10.4675 16.1246 10.0794 16.1404 9.82687 15.9119L6.74916 13.1209ZM19.5955 4.4043C17.6516 2.46055 14.9661 1.25801 11.9999 1.25801C9.03352 1.25801 6.348 2.46035 4.40426 4.4041C2.46033 6.34805 1.25819 9.0334 1.25819 11.9998C1.25819 14.9662 2.46053 17.6518 4.40426 19.5957C6.348 21.5395 9.03352 22.7418 11.9999 22.7418C14.9661 22.7418 17.6516 21.5395 19.5955 19.5957C21.5395 17.6518 22.7414 14.9664 22.7414 11.9998C22.7416 9.03359 21.5395 6.34805 19.5955 4.4043Z" fill="#505050"/>
</svg>
