<svg width="18" height="20" viewBox="0 0 18 20" fill="none" xmlns="http://www.w3.org/2000/svg">
<path d="M5.30769 4.18605C4.92923 4.18605 4.61538 3.86977 4.61538 3.48837V0.697674C4.61538 0.316279 4.92923 0 5.30769 0C5.68615 0 6 0.316279 6 0.697674V3.48837C6 3.86977 5.68615 4.18605 5.30769 4.18605Z" fill="#B7A58D"/>
<path d="M12.6923 4.18605C12.3138 4.18605 12 3.86977 12 3.48837V0.697674C12 0.316279 12.3138 0 12.6923 0C13.0708 0 13.3846 0.316279 13.3846 0.697674V3.48837C13.3846 3.86977 13.0708 4.18605 12.6923 4.18605Z" fill="#B7A58D"/>
<path d="M11.7692 20H6.23077C1.04308 20 0 17.5349 0 13.5535V7.81395C0 3.40465 1.47692 1.6093 5.27077 1.39535H12.6923C12.7015 1.39535 12.72 1.39535 12.7292 1.39535C16.5231 1.6093 18 3.40465 18 7.81395V13.5535C18 17.5349 16.9569 20 11.7692 20ZM5.30769 2.7907C2.72308 2.93953 1.38462 3.75814 1.38462 7.81395V13.5535C1.38462 17.1163 2.05846 18.6047 6.23077 18.6047H11.7692C15.9415 18.6047 16.6154 17.1163 16.6154 13.5535V7.81395C16.6154 3.76744 15.2862 2.93953 12.6738 2.7907H5.30769Z" fill="#B7A58D"/>
<path d="M17.0769 15.907H0.923077C0.544615 15.907 0.230769 15.5907 0.230769 15.2093C0.230769 14.8279 0.544615 14.5116 0.923077 14.5116H17.0769C17.4554 14.5116 17.7692 14.8279 17.7692 15.2093C17.7692 15.5907 17.4554 15.907 17.0769 15.907Z" fill="#B7A58D"/>
<path d="M9 6.51163C7.86462 6.51163 6.90461 7.13488 6.90461 8.34419C6.90461 8.92093 7.17231 9.35814 7.57846 9.63721C7.01538 9.97209 6.69231 10.5116 6.69231 11.1442C6.69231 12.2977 7.56923 13.014 9 13.014C10.4215 13.014 11.3077 12.2977 11.3077 11.1442C11.3077 10.5116 10.9846 9.96279 10.4123 9.63721C10.8277 9.34884 11.0862 8.92093 11.0862 8.34419C11.0862 7.13488 10.1354 6.51163 9 6.51163ZM9 9.15349C8.52 9.15349 8.16923 8.86512 8.16923 8.4093C8.16923 7.94419 8.52 7.67442 9 7.67442C9.48 7.67442 9.83077 7.94419 9.83077 8.4093C9.83077 8.86512 9.48 9.15349 9 9.15349ZM9 11.8605C8.39077 11.8605 7.94769 11.5535 7.94769 10.9953C7.94769 10.4372 8.39077 10.1395 9 10.1395C9.60923 10.1395 10.0523 10.4465 10.0523 10.9953C10.0523 11.5535 9.60923 11.8605 9 11.8605Z" fill="#B7A58D"/>
</svg>
