<svg width="22" height="25" viewBox="0 0 22 25" fill="none" xmlns="http://www.w3.org/2000/svg">
<path d="M6.48718 5.52326C6.02462 5.52326 5.64103 5.14372 5.64103 4.68605V1.33721C5.64103 0.879535 6.02462 0.5 6.48718 0.5C6.94974 0.5 7.33333 0.879535 7.33333 1.33721V4.68605C7.33333 5.14372 6.94974 5.52326 6.48718 5.52326Z" fill="#505050"/>
<path d="M15.5128 5.52326C15.0503 5.52326 14.6667 5.14372 14.6667 4.68605V1.33721C14.6667 0.879535 15.0503 0.5 15.5128 0.5C15.9754 0.5 16.359 0.879535 16.359 1.33721V4.68605C16.359 5.14372 15.9754 5.52326 15.5128 5.52326Z" fill="#505050"/>
<path d="M20.5897 10.0888H1.41026C0.947692 10.0888 0.564103 9.70926 0.564103 9.25159C0.564103 8.79392 0.947692 8.41438 1.41026 8.41438H20.5897C21.0523 8.41438 21.4359 8.79392 21.4359 9.25159C21.4359 9.70926 21.0523 10.0888 20.5897 10.0888Z" fill="#505050"/>
<path d="M15.5128 24.5H6.48718C2.36923 24.5 0 22.1558 0 18.0814V8.59302C0 4.5186 2.36923 2.17442 6.48718 2.17442H15.5128C19.6308 2.17442 22 4.5186 22 8.59302V18.0814C22 22.1558 19.6308 24.5 15.5128 24.5ZM6.48718 3.84884C3.26051 3.84884 1.69231 5.40047 1.69231 8.59302V18.0814C1.69231 21.274 3.26051 22.8256 6.48718 22.8256H15.5128C18.7395 22.8256 20.3077 21.274 20.3077 18.0814V8.59302C20.3077 5.40047 18.7395 3.84884 15.5128 3.84884H6.48718Z" fill="#505050"/>
<path d="M7.05128 15.2907C6.90462 15.2907 6.75794 15.2572 6.62256 15.2014C6.48717 15.1456 6.36309 15.0674 6.25027 14.967C6.14873 14.8554 6.06973 14.7326 6.01332 14.5986C5.95691 14.4647 5.92308 14.3195 5.92308 14.1744C5.92308 13.8842 6.04719 13.594 6.25027 13.3819C6.36309 13.2814 6.48717 13.2033 6.62256 13.1474C6.82564 13.0581 7.0513 13.0358 7.27694 13.0805C7.34463 13.0916 7.41231 13.114 7.48001 13.1474C7.5477 13.1698 7.61538 13.2033 7.68307 13.2479C7.73948 13.2926 7.79589 13.3372 7.8523 13.3819C7.89743 13.4377 7.95383 13.4935 7.98768 13.5493C8.03281 13.6163 8.06668 13.6833 8.08925 13.7502C8.12309 13.8172 8.14565 13.8842 8.15694 13.9512C8.16822 14.0293 8.17949 14.0963 8.17949 14.1744C8.17949 14.4647 8.05538 14.7549 7.8523 14.967C7.63794 15.1679 7.34462 15.2907 7.05128 15.2907Z" fill="#505050"/>
<path d="M11 15.2907C10.7067 15.2907 10.4133 15.1679 10.199 14.967C10.1539 14.9111 10.1087 14.8553 10.0636 14.7995C10.0185 14.7326 9.9846 14.6656 9.96204 14.5986C9.92819 14.5316 9.90563 14.4647 9.89435 14.3977C9.88307 14.3195 9.8718 14.2526 9.8718 14.1744C9.8718 14.0293 9.90563 13.8842 9.96204 13.7502C10.0184 13.6163 10.0974 13.4935 10.199 13.3819C10.5149 13.0693 11.0226 12.9688 11.4287 13.1474C11.5754 13.2032 11.6882 13.2814 11.801 13.3819C12.0041 13.594 12.1282 13.8842 12.1282 14.1744C12.1282 14.2526 12.1169 14.3195 12.1057 14.3977C12.0944 14.4647 12.0718 14.5316 12.038 14.5986C12.0154 14.6656 11.9815 14.7326 11.9364 14.7995C11.8913 14.8553 11.8461 14.9111 11.801 14.967C11.6882 15.0674 11.5754 15.1456 11.4287 15.2014C11.2933 15.2572 11.1467 15.2907 11 15.2907Z" fill="#505050"/>
<path d="M7.05128 19.1977C6.90462 19.1977 6.75794 19.1642 6.62256 19.1084C6.48717 19.0526 6.36309 18.9744 6.25027 18.8739C6.14873 18.7623 6.06973 18.6507 6.01332 18.5056C5.95691 18.3716 5.92308 18.2265 5.92308 18.0814C5.92308 17.7912 6.04719 17.5009 6.25027 17.2888C6.36309 17.1884 6.48717 17.1102 6.62256 17.0544C7.03999 16.8758 7.5364 16.9763 7.8523 17.2888C7.89743 17.3447 7.95383 17.4005 7.98768 17.4563C8.03281 17.5233 8.06668 17.5902 8.08925 17.6572C8.12309 17.7242 8.14565 17.7912 8.15694 17.8693C8.16822 17.9363 8.17949 18.0144 8.17949 18.0814C8.17949 18.3716 8.05538 18.6618 7.8523 18.8739C7.63794 19.0749 7.34462 19.1977 7.05128 19.1977Z" fill="#505050"/>
</svg>
