<svg width="44" height="44" viewBox="0 0 44 44" fill="none" xmlns="http://www.w3.org/2000/svg">
<path d="M20.5727 31.9613C20.4968 31.7787 20.4585 31.5821 20.4585 31.3723C20.4585 31.1617 20.4965 30.9651 20.5727 30.7829C20.6479 30.6017 20.7611 30.4359 20.9111 30.2855C21.0611 30.1352 21.2276 30.022 21.4092 29.9465C21.5918 29.8702 21.7887 29.8326 21.9986 29.8326C22.2102 29.8326 22.4075 29.8702 22.5901 29.9465C22.7691 30.0206 22.9328 30.1312 23.081 30.2773C23.0839 30.2802 23.0868 30.2823 23.0889 30.2848C23.2389 30.4345 23.3517 30.601 23.4273 30.7829C23.5035 30.9655 23.5411 31.1621 23.5411 31.3723C23.5411 31.5821 23.5035 31.7787 23.4273 31.9613C23.3517 32.1424 23.2393 32.3089 23.0889 32.4593C22.9382 32.6097 22.7709 32.7243 22.5883 32.8006C22.4061 32.8768 22.2091 32.9151 21.9986 32.9151C21.7887 32.9151 21.5925 32.8768 21.4106 32.8006C21.2323 32.7257 21.0679 32.6144 20.9197 32.4676C20.9168 32.4647 20.914 32.4618 20.9111 32.4593C20.7611 32.3093 20.6483 32.1432 20.5727 31.9613ZM22 1.84939C20.6057 1.84939 19.2536 1.98044 17.9445 2.24254C16.6336 2.50464 15.3688 2.896 14.1518 3.4159L14.1521 3.41734C12.915 3.94942 11.7631 4.57173 10.6981 5.28642C9.63109 6.00254 8.64137 6.8157 7.73187 7.72875L7.72829 7.73233C6.8152 8.64217 6.00202 9.63113 5.28587 10.6985C4.57116 11.7634 3.94919 12.9153 3.41673 14.1524C3.41029 14.1674 3.40348 14.1817 3.39668 14.1964C2.88607 15.3999 2.50114 16.6498 2.24189 17.9446C1.97979 19.2537 1.84873 20.6057 1.84873 21.9996C1.84873 23.3943 1.97979 24.746 2.24189 26.055C2.504 27.3655 2.89538 28.6306 3.4153 29.8476L3.41637 29.8469C3.94847 31.084 4.5708 32.2359 5.28551 33.3008C6.00166 34.3678 6.81484 35.3575 7.72793 36.2666L7.73151 36.2702C8.64102 37.1836 9.63037 37.9967 10.6978 38.7129C11.7627 39.4268 12.9146 40.0492 14.1518 40.5816C14.1668 40.588 14.1815 40.5948 14.1958 40.602C15.3993 41.1126 16.6493 41.4972 17.9441 41.7567C19.2532 42.0188 20.6053 42.1499 21.9996 42.1499C23.394 42.1499 24.7461 42.0192 26.0548 41.7567C27.3657 41.4946 28.6301 41.1029 29.8479 40.5834L29.8472 40.5819C31.0843 40.0499 32.2362 39.4272 33.3011 38.7132C34.3678 37.9971 35.3576 37.1839 36.2671 36.2705L36.2706 36.2669C37.1834 35.3578 37.9969 34.3681 38.7127 33.3011C39.4274 32.2359 40.0497 31.0844 40.5822 29.8473C40.5886 29.8326 40.5951 29.8179 40.6022 29.8039C41.1132 28.6005 41.4978 27.3498 41.757 26.0554C42.0191 24.7463 42.1506 23.3943 42.1506 22C42.1506 20.6061 42.0195 19.254 41.757 17.945C41.4949 16.6341 41.1035 15.3698 40.5836 14.1524L40.5826 14.1527C40.0505 12.9156 39.4278 11.7637 38.7131 10.6989C37.9973 9.63185 37.1837 8.64252 36.271 7.73269L36.2674 7.72911C35.3579 6.81641 34.3682 6.0029 33.3015 5.28677C32.2362 4.57208 31.0847 3.94977 29.8475 3.41769C29.8328 3.41125 29.8182 3.40445 29.8035 3.39764C28.6 2.88705 27.35 2.50213 26.0552 2.2429C24.7464 1.98044 23.3943 1.84939 22 1.84939ZM17.5835 0.429315C19.013 0.143225 20.4854 0 22 0C23.5143 0 24.987 0.143225 26.4165 0.429315C27.8258 0.711468 29.1965 1.13505 30.5271 1.70007C30.544 1.70616 30.5604 1.71261 30.5773 1.71977C31.9039 2.29052 33.1547 2.96797 34.3274 3.75499C35.4965 4.5395 36.5782 5.42857 37.5719 6.42505L37.5755 6.42863C38.5716 7.42189 39.4611 8.50395 40.2452 9.67302C41.0323 10.8453 41.7098 12.096 42.2805 13.423L42.2795 13.4234L42.2805 13.4266C42.8556 14.7718 43.286 16.1579 43.571 17.5833C43.8571 19.0127 44 20.485 44 21.9996C44 23.5142 43.8571 24.9873 43.571 26.416C43.2889 27.8253 42.8653 29.196 42.3002 30.5265C42.2941 30.5433 42.2877 30.5602 42.2802 30.577C41.7094 31.9036 41.0323 33.154 40.2449 34.327C39.4607 35.4957 38.5713 36.5774 37.5751 37.5714L37.5715 37.5749C36.5782 38.5714 35.4961 39.4605 34.327 40.245C33.1547 41.0317 31.9036 41.7095 30.5769 42.2802L30.5762 42.2788L30.573 42.2802C29.2277 42.8549 27.8416 43.2853 26.4161 43.5707C24.9867 43.8568 23.5143 44 21.9996 44C20.485 44 19.0122 43.8568 17.5832 43.5707C16.1742 43.2882 14.8035 42.8649 13.4725 42.2999C13.4557 42.2935 13.4392 42.2874 13.4224 42.2802C12.0953 41.7095 10.845 41.032 9.67227 40.245C8.50352 39.4605 7.42142 38.5714 6.42812 37.5749L6.42454 37.5714C5.42803 36.5777 4.53893 35.4957 3.75439 34.327C2.96735 33.1543 2.28988 31.9036 1.71911 30.577L1.72054 30.5763L1.71911 30.5727C1.1444 29.2278 0.713997 27.8418 0.428613 26.416C0.143229 24.9866 0 23.5139 0 21.9989C0 20.4847 0.143229 19.012 0.429329 17.5826C0.711491 16.1736 1.13509 14.803 1.69977 13.4724C1.70586 13.4556 1.71266 13.4391 1.71947 13.4223C2.29023 12.0953 2.96771 10.8446 3.75475 9.67231C4.53893 8.5036 5.42839 7.42154 6.4249 6.42792L6.42848 6.42433C7.42178 5.42785 8.50387 4.53878 9.67262 3.75427C10.8453 2.96725 12.0961 2.2898 13.4227 1.71905L13.4234 1.72013L13.4263 1.71905C14.7719 1.14472 16.158 0.71469 17.5835 0.429315ZM22.955 27.8643C22.9532 28.2267 22.6982 28.4551 22.3724 28.5532C22.2539 28.589 22.1264 28.6062 22 28.6062C21.8736 28.6062 21.7461 28.5887 21.6276 28.5532C21.3018 28.4555 21.0468 28.2267 21.045 27.8643L19.8215 11.8665C19.8211 11.8629 19.8211 11.859 19.8211 11.8554C19.8211 11.4637 20.4044 11.2259 21.151 11.1328C21.4196 11.0995 21.71 11.0827 22 11.0827C22.29 11.0827 22.5804 11.0995 22.8486 11.1328C23.5956 11.2259 24.1792 11.4637 24.1792 11.8554C24.1792 11.8619 24.1785 11.8683 24.1778 11.8744L22.955 27.8643Z" fill="#B7A58D"/>
</svg>
