<svg width="20" height="20" viewBox="0 0 20 20" fill="none" xmlns="http://www.w3.org/2000/svg">
<path d="M9.99992 0C12.7613 0 15.2613 1.1193 17.071 2.92904C18.8807 4.73861 20 7.23877 20 10C20 12.7616 18.8807 15.2614 17.071 17.071C15.2613 18.8807 12.7613 20 9.99992 20C7.23855 20 4.73857 18.8807 2.92901 17.071C1.11929 15.2614 0 12.7614 0 9.99984C0 7.23861 1.11929 4.73844 2.92901 2.92887C4.73857 1.1193 7.23855 0 9.99992 0ZM13.0468 6.08219C13.2585 5.87028 13.6021 5.87028 13.8139 6.08219C14.0256 6.29395 14.0256 6.63737 13.8139 6.84928L10.6627 10.0007L13.8139 13.152C14.0256 13.3638 14.0256 13.7072 13.8139 13.9191C13.6021 14.1309 13.2585 14.1309 13.0468 13.9191L9.89543 10.7677L6.74409 13.9193C6.53234 14.131 6.18875 14.131 5.977 13.9193C5.76525 13.7074 5.76525 13.3639 5.977 13.1522L9.12851 10.0008L5.977 6.84928C5.76525 6.63737 5.76525 6.29395 5.977 6.08219C6.18875 5.87028 6.53234 5.87028 6.74409 6.08219L9.89559 9.23356L13.0468 6.08219ZM16.3039 3.69596C14.6906 2.08268 12.4618 1.08496 9.99992 1.08496C7.53802 1.08496 5.30936 2.08268 3.6961 3.69596C2.08283 5.30925 1.08495 7.53809 1.08495 9.99984C1.08495 12.4618 2.08283 14.6906 3.69593 16.3039C5.3092 17.917 7.53786 18.9149 9.99976 18.9149C12.4616 18.9149 14.6905 17.917 16.3037 16.3039C17.917 14.6906 18.9149 12.4618 18.9149 9.99984C18.915 7.53809 17.9172 5.30925 16.3039 3.69596Z" fill="#505050"/>
</svg>
