<svg width="14" height="14" viewBox="0 0 14 14" fill="none" xmlns="http://www.w3.org/2000/svg">
<path d="M0.162442 0.947062C-0.0541472 0.730477 -0.0541472 0.379224 0.162442 0.162524C0.37903 -0.0541748 0.730289 -0.0541748 0.946992 0.162524L6.99997 6.21541L13.053 0.162524C13.2695 -0.0541748 13.6208 -0.0541748 13.8376 0.162524C14.0542 0.37911 14.0542 0.730477 13.8376 0.947062L7.78441 6.99983L13.8375 13.0528C14.0541 13.2694 14.0541 13.6207 13.8375 13.8374C13.6208 14.0541 13.2695 14.0541 13.0528 13.8374L6.99986 7.78448L0.946992 13.8374C0.730403 14.0541 0.379144 14.0541 0.162442 13.8374C-0.0541472 13.6208 -0.0541472 13.2695 0.162442 13.0528L6.21542 6.99983L0.162442 0.947062Z" fill="#505050"/>
</svg>
