<svg width="20" height="20" viewBox="0 0 20 20" fill="none" xmlns="http://www.w3.org/2000/svg">
<path d="M7.2093 15.3488C7.11628 15.3488 7.03256 15.3302 6.93954 15.293C6.67907 15.1907 6.51163 14.9302 6.51163 14.6512V9.06977C6.51163 8.68837 6.82791 8.37209 7.2093 8.37209C7.5907 8.37209 7.90698 8.68837 7.90698 9.06977V12.9674L8.57675 12.2977C8.84651 12.0279 9.29302 12.0279 9.56279 12.2977C9.83256 12.5674 9.83256 13.014 9.56279 13.2837L7.70233 15.1442C7.57209 15.2744 7.38605 15.3488 7.2093 15.3488Z" fill="#505050"/>
<path d="M7.2093 15.3488C7.03256 15.3488 6.85531 15.2837 6.71577 15.1441L4.85531 13.2837C4.58554 13.0139 4.58554 12.5674 4.85531 12.2976C5.12507 12.0279 5.57158 12.0279 5.84135 12.2976L7.70182 14.1581C7.97158 14.4279 7.97209 14.8744 7.70233 15.1442C7.56279 15.2837 7.38605 15.3488 7.2093 15.3488Z" fill="#505050"/>
<path d="M12.7907 20H7.2093C2.15814 20 0 17.8419 0 12.7907V7.2093C0 2.15814 2.15814 0 7.2093 0H11.8605C12.2419 0 12.5581 0.316279 12.5581 0.697674C12.5581 1.07907 12.2419 1.39535 11.8605 1.39535H7.2093C2.92093 1.39535 1.39535 2.92093 1.39535 7.2093V12.7907C1.39535 17.0791 2.92093 18.6047 7.2093 18.6047H12.7907C17.0791 18.6047 18.6047 17.0791 18.6047 12.7907V8.13953C18.6047 7.75814 18.9209 7.44186 19.3023 7.44186C19.6837 7.44186 20 7.75814 20 8.13953V12.7907C20 17.8419 17.8419 20 12.7907 20Z" fill="#505050"/>
<path d="M19.3023 8.8372H15.5814C12.4 8.8372 11.1628 7.59999 11.1628 4.41859V0.697664C11.1628 0.418594 11.3302 0.158129 11.5907 0.0558034C11.8512 -0.0558245 12.1488 0.00929188 12.3535 0.204641L19.7953 7.6465C19.9907 7.84185 20.0558 8.14883 19.9442 8.40929C19.8326 8.66976 19.5814 8.8372 19.3023 8.8372ZM12.5581 2.38138V4.41859C12.5581 6.81859 13.1814 7.44185 15.5814 7.44185H17.6186L12.5581 2.38138Z" fill="#505050"/>
</svg>
