<svg width="20" height="20" viewBox="0 0 20 20" fill="none" xmlns="http://www.w3.org/2000/svg">
<path d="M12.277 7.72297L7.72297 12.277M12.277 7.72297C11.692 7.13798 10.891 6.77798 9.99997 6.77798C8.21797 6.77798 6.77798 8.21797 6.77798 9.99997C6.77798 10.891 7.13798 11.692 7.72297 12.277M12.277 7.72297L19 1M7.72297 12.277L1 19M15.238 4.39298C13.663 3.20498 11.863 2.55698 10 2.55698C6.82302 2.55698 3.86202 4.42898 1.80102 7.66897C0.991024 8.93797 0.991024 11.071 1.80102 12.34C2.51202 13.456 3.34002 14.419 4.24002 15.193M6.77798 16.777C7.80397 17.209 8.89297 17.443 9.99997 17.443C13.177 17.443 16.138 15.571 18.199 12.331C19.009 11.062 19.009 8.92898 18.199 7.65998C17.902 7.19198 17.578 6.75098 17.245 6.33699M13.159 10.63C12.925 11.899 11.89 12.934 10.621 13.168" stroke="#B7A58D" stroke-width="1.5" stroke-linecap="round" stroke-linejoin="round"/>
</svg>
