<svg width="20" height="17" viewBox="0 0 20 17" fill="none" xmlns="http://www.w3.org/2000/svg">
<path d="M13.2928 8.50454C13.2928 10.2991 11.8211 11.7493 9.99996 11.7493C8.1788 11.7493 6.70716 10.2991 6.70716 8.50454C6.70716 6.70998 8.1788 5.25983 9.99996 5.25983C11.8211 5.25983 13.2928 6.70998 13.2928 8.50454Z" stroke="#B7A58D" stroke-width="1.5" stroke-linecap="round" stroke-linejoin="round"/>
<path d="M10 16C13.2468 16 16.2729 14.1148 18.3792 10.852C19.207 9.57402 19.207 7.42598 18.3792 6.14804C16.2729 2.8852 13.2468 1 10 1C6.75319 1 3.72713 2.8852 1.62085 6.14804C0.793051 7.42598 0.793051 9.57402 1.62085 10.852C3.72713 14.1148 6.75319 16 10 16Z" stroke="#B7A58D" stroke-width="1.5" stroke-linecap="round" stroke-linejoin="round"/>
</svg>
