<svg width="22" height="20" viewBox="0 0 22 20" fill="none" xmlns="http://www.w3.org/2000/svg">
<path d="M11.6548 4.21446C11.5441 4.33274 11.4334 4.45266 11.2967 4.59559L10.9207 4.9915L10.5301 4.60873C10.4145 4.49538 10.2974 4.37874 10.1834 4.26539C8.97575 3.06615 8.06592 2.16262 6.19255 2.13798C6.1193 2.13634 6.04118 2.13798 5.9598 2.14126C4.91162 2.17905 3.94482 2.56839 3.23844 3.23372C2.54183 3.89083 2.09749 4.82229 2.08284 5.95581C2.08122 6.02645 2.08284 6.10038 2.0861 6.18087C2.1984 9.34652 5.19971 12.108 7.68831 14.3964C8.16846 14.8384 8.62907 15.2622 9.07015 15.691L10.9028 17.4734L13.2059 15.1669C13.577 14.7956 13.9969 14.3899 14.4461 13.9562C15.2095 13.2169 16.0591 12.3972 16.8501 11.5709C17.4181 10.9778 17.9569 10.3815 18.4142 9.80814C18.8634 9.24631 19.2313 8.71241 19.4673 8.236C19.8547 7.45403 19.9767 6.67207 19.8937 5.94103C19.8123 5.21984 19.5308 4.5463 19.1092 3.97133C18.6812 3.38814 18.1115 2.90516 17.4588 2.57496C16.7069 2.19712 15.8459 2.01806 14.9653 2.11991C13.4468 2.29733 12.6379 3.16308 11.6548 4.21446ZM10.8914 3.43906C12.0145 2.23819 12.9471 1.25416 14.8416 1.03567C15.9354 0.909175 17.0063 1.12931 17.939 1.60243C18.7446 2.00984 19.4478 2.60453 19.9751 3.32243C20.5073 4.04854 20.8638 4.90114 20.9679 5.81782C21.0737 6.74763 20.9207 7.73823 20.4308 8.72391C20.1541 9.28081 19.744 9.87878 19.2541 10.4915C18.7739 11.0928 18.214 11.7138 17.6265 12.3265C16.8208 13.1693 15.9647 13.9972 15.1932 14.7431C14.7423 15.1784 14.3208 15.5858 13.966 15.9407L11.2869 18.6233L10.911 18.9995L10.5301 18.6299L8.31657 16.4779C7.9113 16.0852 7.44255 15.6532 6.95589 15.2047C4.31755 12.775 1.13232 9.84593 1.00374 6.21866C1.00049 6.12995 1.00049 6.03795 1.00049 5.94267C1.02002 4.48716 1.59619 3.28464 2.49951 2.43368C3.39469 1.59093 4.61051 1.0981 5.91911 1.05045C6.00863 1.04717 6.10303 1.04553 6.20231 1.04717C8.48747 1.07838 9.53239 2.0887 10.8914 3.43906Z" fill="#505050" stroke="#505050" stroke-width="0.5"/>
</svg>
