<svg width="18" height="26" viewBox="0 0 18 26" fill="none" xmlns="http://www.w3.org/2000/svg">
<path d="M9 25.5C8.70833 25.5 8.45833 25.4167 8.25 25.25C8.04167 25.0833 7.88542 24.8646 7.78125 24.5938C7.38542 23.4271 6.88542 22.3333 6.28125 21.3125C5.69792 20.2917 4.875 19.0938 3.8125 17.7188C2.75 16.3438 1.88542 15.0312 1.21875 13.7812C0.572917 12.5312 0.25 11.0208 0.25 9.25C0.25 6.8125 1.09375 4.75 2.78125 3.0625C4.48958 1.35417 6.5625 0.5 9 0.5C11.4375 0.5 13.5 1.35417 15.1875 3.0625C16.8958 4.75 17.75 6.8125 17.75 9.25C17.75 11.1458 17.3854 12.7292 16.6563 14C15.9479 15.25 15.125 16.4896 14.1875 17.7188C13.0625 19.2188 12.2083 20.4688 11.625 21.4688C11.0625 22.4479 10.5938 23.4896 10.2188 24.5938C10.1146 24.8854 9.94792 25.1146 9.71875 25.2812C9.51042 25.4271 9.27083 25.5 9 25.5ZM9 12.375C9.875 12.375 10.6146 12.0729 11.2188 11.4688C11.8229 10.8646 12.125 10.125 12.125 9.25C12.125 8.375 11.8229 7.63542 11.2188 7.03125C10.6146 6.42708 9.875 6.125 9 6.125C8.125 6.125 7.38542 6.42708 6.78125 7.03125C6.17708 7.63542 5.875 8.375 5.875 9.25C5.875 10.125 6.17708 10.8646 6.78125 11.4688C7.38542 12.0729 8.125 12.375 9 12.375Z" fill="#1D1B20"/>
</svg>
