<svg width="40" height="44" viewBox="0 0 40 44" fill="none" xmlns="http://www.w3.org/2000/svg">
<path d="M18.7923 0.879778C18.7923 0.393877 19.3332 0 19.9998 0C20.6664 0 21.2074 0.393877 21.2074 0.879778V16.7699C21.2074 17.2558 20.6668 17.6496 19.9998 17.6496C19.3329 17.6496 18.7923 17.2558 18.7923 16.7699V0.879778ZM26.0457 7.04001C25.4202 6.80798 25.0993 6.10724 25.3289 5.47417C25.5578 4.84146 26.2502 4.5167 26.8758 4.74872C30.7542 6.18638 34.0719 8.80888 36.4018 12.1844C38.6693 15.4693 40 19.4604 40 23.759C40 29.3471 37.7607 34.4073 34.1413 38.0707C30.5218 41.7334 25.5217 44 19.9998 44C14.4779 44 9.47787 41.7338 5.85839 38.0707C2.23926 34.4073 0 29.3471 0 23.759C0 19.4604 1.33033 15.4693 3.59789 12.1844C5.92773 8.80888 9.24541 6.18638 13.1239 4.74872C13.7491 4.51705 14.4418 4.84182 14.6707 5.47417C14.9 6.10688 14.5791 6.80798 13.9539 7.04001C10.5365 8.30687 7.61612 10.6128 5.56932 13.578C3.58127 16.4583 2.41475 19.9681 2.41475 23.759C2.41475 28.6728 4.38335 33.1218 7.56588 36.3427C10.7484 39.5635 15.1445 41.5562 19.9998 41.5562C24.8552 41.5562 29.2512 39.5639 32.4338 36.3427C35.6163 33.1222 37.5849 28.6728 37.5849 23.759C37.5849 19.9681 36.4184 16.4583 34.4303 13.578C32.3832 10.6125 29.4632 8.30651 26.0457 7.04001Z" fill="#B7A58D"/>
</svg>
