<svg width="22" height="22" viewBox="0 0 22 22" fill="none" xmlns="http://www.w3.org/2000/svg">
<path d="M13.98 13.98C14.15 13.99 14.33 14 14.5 14C18.09 14 21 11.09 21 7.5C21 3.91 18.09 1 14.5 1C10.91 1 8 3.91 8 7.5C8 7.67 8.00999 7.84999 8.01999 8.01999M13.98 13.98C13.73 10.81 11.19 8.26999 8.01999 8.01999M13.98 13.98C13.99 14.15 14 14.33 14 14.5C14 18.09 11.09 21 7.5 21C3.91 21 1 18.09 1 14.5C1 10.91 3.91 8 7.5 8C7.67 8 7.84999 8.00999 8.01999 8.01999M6.62 13.62L7.5 12L8.38 13.62L10 14.5L8.38 15.38L7.5 17L6.62 15.38L5 14.5L6.62 13.62Z" stroke="#505050" stroke-width="1.5" stroke-linecap="round" stroke-linejoin="round"/>
</svg>
