<svg width="20" height="20" viewBox="0 0 20 20" fill="none" xmlns="http://www.w3.org/2000/svg">
<path d="M2.92892 2.9289C4.88159 0.976408 7.44088 0 10 0C12.5591 0 15.1186 0.976408 17.0712 2.9289C19.0237 4.88155 20 7.44082 20 9.99992C20 12.5593 19.0237 15.1185 17.0712 17.0711C15.1186 19.0236 12.5591 20 10 20C7.44088 20 4.88143 19.0236 2.92892 17.0711C0.976253 15.1186 0 12.5593 0 9.99992C0 7.44082 0.976253 4.88155 2.92892 2.9289ZM14.926 9.53198C15.2255 9.53198 15.4684 9.77482 15.4684 10.0743C15.4684 10.3739 15.2255 10.6168 14.926 10.6168C11.5931 10.6168 8.26023 10.6168 4.92733 10.6168C4.62784 10.6168 4.38484 10.3739 4.38484 10.0743C4.38484 9.77482 4.62768 9.53198 4.92733 9.53198C8.26023 9.53198 11.5933 9.53198 14.926 9.53198ZM10 1.08481C7.71839 1.08481 5.43694 1.95526 3.69602 3.69616C1.95527 5.43689 1.08482 7.71849 1.08482 9.99992C1.08482 12.2815 1.95527 14.5631 3.69602 16.3038C5.43694 18.0447 7.71839 18.9152 10 18.9152C12.2816 18.9152 14.5631 18.0447 16.304 16.3038C18.0447 14.5631 18.9153 12.2814 18.9153 9.99992C18.9153 7.71849 18.0447 5.43689 16.304 3.69616C14.5632 1.95526 12.2816 1.08481 10 1.08481Z" fill="#505050"/>
</svg>
