<svg width="22" height="25" viewBox="0 0 22 25" fill="none" xmlns="http://www.w3.org/2000/svg">
<path d="M10.9968 10.7825C10.5296 10.7825 10.1421 10.4058 10.1421 9.95152V6.26177C10.1421 5.80748 10.5296 5.43074 10.9968 5.43074C11.4641 5.43074 11.8516 5.80748 11.8516 6.26177V9.95152C11.8516 10.4169 11.4641 10.7825 10.9968 10.7825Z" fill="#505050"/>
<path d="M11.0196 21.6745C8.07934 21.6745 5.15042 21.2202 2.35827 20.3116C1.32118 19.9792 0.534819 19.259 0.192922 18.3504C-0.148974 17.4418 -0.035009 16.4003 0.523422 15.4917L1.97078 13.1427C2.28989 12.6219 2.5748 11.6468 2.5748 11.0374V8.71053C2.5748 4.17867 6.35846 0.5 11.0196 0.5C15.6808 0.5 19.4645 4.17867 19.4645 8.71053V11.0374C19.4645 11.6357 19.7494 12.6219 20.0685 13.1427L21.5159 15.4917C22.0515 16.356 22.1427 17.3864 21.7894 18.3283C21.4361 19.2701 20.6611 19.9903 19.681 20.3116C16.8889 21.2313 13.96 21.6745 11.0196 21.6745ZM11.0196 2.17313C7.30437 2.17313 4.28428 5.10942 4.28428 8.72161V11.0485C4.28428 11.946 3.91959 13.2424 3.44094 14.0069L1.99358 16.367C1.69727 16.8435 1.62889 17.3532 1.79984 17.7964C1.97078 18.2396 2.35827 18.572 2.9053 18.7493C8.14771 20.4446 13.9144 20.4446 19.1568 18.7493C19.6468 18.5942 20.0229 18.2396 20.1939 17.7742C20.3762 17.3089 20.3192 16.7992 20.0571 16.367L18.6097 14.018C18.1311 13.2535 17.7664 11.9571 17.7664 11.0596V8.73269C17.755 5.10942 14.7349 2.17313 11.0196 2.17313Z" fill="#505050"/>
<path d="M10.9968 24.5C9.77741 24.5 8.58078 24.0125 7.71464 23.1704C6.8485 22.3283 6.34705 21.1648 6.34705 19.9792H8.05654C8.05654 20.7327 8.37564 21.464 8.92267 21.9958C9.46971 22.5277 10.2219 22.838 10.9968 22.838C12.6152 22.838 13.9372 21.5526 13.9372 19.9792H15.6466C15.6466 22.4723 13.5611 24.5 10.9968 24.5Z" fill="#505050"/>
</svg>
