<svg width="20" height="20" viewBox="0 0 20 20" fill="none" xmlns="http://www.w3.org/2000/svg">
<path d="M10 0C12.7609 0 15.2609 1.11953 17.0707 2.9293C18.8805 4.73867 20 7.23906 20 10C20 12.7609 18.8805 15.2613 17.0707 17.0707C15.2613 18.8805 12.7609 20 10 20C7.23906 20 4.73867 18.8805 2.9293 17.0707C1.11953 15.2609 0 12.7609 0 10C0 7.23906 1.11953 4.73867 2.9293 2.9293C4.73867 1.11953 7.23906 0 10 0ZM11.2863 8.41172C11.2609 8.12578 11.1461 7.90586 10.9426 7.7457C10.8012 7.63516 10.6172 7.5625 10.391 7.52891V9.18633L10.8023 9.2793C11.1934 9.36484 11.541 9.47773 11.843 9.61992C12.1434 9.76172 12.3961 9.93281 12.6016 10.1289C12.8074 10.3238 12.9637 10.5512 13.0691 10.8059C13.1746 11.0625 13.2293 11.35 13.2328 11.6664C13.2293 12.1687 13.102 12.598 12.8527 12.9582C12.6016 13.3168 12.2414 13.5934 11.7723 13.7844C11.3805 13.9445 10.9199 14.0367 10.391 14.0625V14.9613H9.7543V14.0621C9.22344 14.0348 8.75234 13.9387 8.34062 13.7715C7.8457 13.573 7.46211 13.2711 7.18906 12.8656C6.91445 12.4598 6.77422 11.9469 6.7668 11.3266H8.60469C8.61914 11.5809 8.68828 11.7957 8.8082 11.9648C8.93008 12.1359 9.09766 12.2648 9.31055 12.3523C9.4457 12.4086 9.59336 12.4465 9.7543 12.4672V10.718L9.18477 10.5855C8.49727 10.4277 7.95703 10.1727 7.56016 9.81992C7.16523 9.4668 6.96914 8.99023 6.9707 8.38789C6.96914 7.89687 7.10156 7.46563 7.36758 7.09609C7.6332 6.72695 8.00039 6.43945 8.47188 6.23203C8.85625 6.06406 9.2832 5.96406 9.7543 5.9332V5.03867H10.391V5.93164C10.877 5.96133 11.3082 6.06211 11.6828 6.23398C12.1379 6.44297 12.4891 6.73438 12.7402 7.10898C12.991 7.48398 13.1184 7.9168 13.1238 8.41172H11.2863ZM9.7543 7.52891C9.64336 7.54492 9.54375 7.56992 9.45586 7.60391C9.29023 7.66914 9.1668 7.75859 9.08477 7.86953C9.00117 7.98203 8.95937 8.11133 8.95547 8.25508C8.95195 8.37539 8.97578 8.47891 9.02852 8.56992C9.08125 8.66094 9.15938 8.73906 9.26133 8.8082C9.36328 8.87734 9.48711 8.9375 9.63047 8.98828C9.6707 9.00234 9.71172 9.01602 9.7543 9.0293V7.52891ZM10.391 12.4625C10.5094 12.4449 10.6172 12.4172 10.7148 12.3797C10.8969 12.3105 11.0371 12.2141 11.1352 12.0906C11.2336 11.9648 11.2844 11.823 11.2863 11.6629C11.2844 11.5137 11.2371 11.3848 11.1461 11.277C11.0551 11.1699 10.9168 11.077 10.7297 10.9988C10.6309 10.9566 10.518 10.9168 10.391 10.8781V12.4625ZM16.1359 3.86367C14.566 2.29375 12.3961 1.32227 10 1.32227C7.60352 1.32227 5.43398 2.29375 3.86367 3.86367C2.29375 5.43398 1.32227 7.60352 1.32227 10C1.32227 12.3961 2.29375 14.566 3.86367 16.1359C5.43398 17.7062 7.60352 18.6773 10 18.6773C12.3965 18.6773 14.566 17.7062 16.1359 16.1359C17.7062 14.566 18.6773 12.3965 18.6773 10C18.6773 7.60352 17.7062 5.43398 16.1359 3.86367Z" fill="#505050"/>
</svg>
