<svg width="20" height="20" viewBox="0 0 20 20" fill="none" xmlns="http://www.w3.org/2000/svg">
<path d="M2.92892 2.9289C4.88159 0.976408 7.44088 0 10 0C12.5591 0 15.1186 0.976408 17.0712 2.9289C19.0237 4.88155 20 7.44082 20 9.99992C20 12.5593 19.0237 15.1185 17.0712 17.0711C15.1186 19.0236 12.5591 20 10 20C7.44088 20 4.88143 19.0236 2.92892 17.0711C0.976253 15.1186 0 12.5593 0 9.99992C0 7.44082 0.976253 4.88155 2.92892 2.9289ZM9.38427 5.07524C9.38427 4.77575 9.62711 4.53291 9.92676 4.53291C10.2264 4.53291 10.4692 4.77575 10.4692 5.07524V9.53214H14.9262C15.2257 9.53214 15.4685 9.77498 15.4685 10.0745C15.4685 10.3741 15.2257 10.6169 14.9262 10.6169H10.4691V15.0739C10.4691 15.3733 10.2262 15.6162 9.92659 15.6162C9.62695 15.6162 9.3841 15.3733 9.3841 15.0739V10.6168H4.92733C4.62784 10.6168 4.38484 10.3739 4.38484 10.0743C4.38484 9.77482 4.62768 9.53198 4.92733 9.53198H9.38427V5.07524ZM10 1.08481C7.71839 1.08481 5.43694 1.95526 3.69602 3.69616C1.95527 5.43689 1.08482 7.71849 1.08482 9.99992C1.08482 12.2815 1.95527 14.5631 3.69602 16.3038C5.43694 18.0447 7.71839 18.9152 10 18.9152C12.2816 18.9152 14.5631 18.0447 16.304 16.3038C18.0447 14.5631 18.9153 12.2814 18.9153 9.99992C18.9153 7.71849 18.0447 5.43689 16.304 3.69616C14.5632 1.95526 12.2816 1.08481 10 1.08481Z" fill="#505050"/>
</svg>
