<svg width="39" height="40" viewBox="0 0 39 40" fill="none" xmlns="http://www.w3.org/2000/svg">
<path fill-rule="evenodd" clip-rule="evenodd" d="M18.0298 15.5557L17.2015 11.7367C19.9356 12.2511 23.9348 16.6757 26.4748 20.1789C24.6661 21.3347 23.5627 22.9984 23.5627 24.9714C23.5622 25.2517 23.5849 25.5316 23.6307 25.8081C22.3769 25.3655 21.0572 25.1419 19.7285 25.1472C17.9854 25.1251 16.262 25.5201 14.7003 26.2997C12.7201 27.3448 11.4906 29.0118 11.4906 31.0434C11.4883 31.5985 11.5836 32.1496 11.7721 32.6713C11.7365 32.7755 11.7009 32.8829 11.6718 32.9968C11.5542 33.4043 11.4932 33.8261 11.4906 34.2503C11.4894 34.7883 11.5802 35.3224 11.7591 35.8294L11.6879 36.0508C11.5612 36.4733 11.4947 36.9117 11.4906 37.3531C11.4876 38.2955 11.7648 39.2173 12.2865 40H12.0439C8.19992 39.8014 2.25604 39.8079 0.719112 35.8391C-1.80145 29.4188 2.78992 21.7872 6.97685 17.1152C7.51601 16.5135 8.08627 15.9408 8.68526 15.3994C10.2093 14.0515 11.853 12.4692 13.8105 11.7855L11.9177 15.3343L14.668 11.6651H16.1175L18.0298 15.5557ZM24.4493 36.5749C24.5949 36.8107 24.6732 37.0821 24.6758 37.3596C24.6758 38.8051 22.4529 39.9642 19.7123 39.9642C16.9717 39.9642 14.7456 38.7921 14.7456 37.3596C14.749 37.0822 14.8273 36.811 14.9721 36.5749C15.6192 37.6396 17.4894 38.4112 19.7123 38.4112C21.9352 38.4112 23.8216 37.6396 24.4493 36.5749ZM38.7217 35.6438C38.9028 35.937 38.9992 36.2753 39 36.6205C39 38.3917 36.2724 39.8307 32.9138 39.8307C29.5552 39.8307 26.8469 38.3754 26.8469 36.6042C26.8471 36.2589 26.9435 35.9205 27.1252 35.6275C27.8985 36.9298 30.2055 37.8772 32.9299 37.8772C35.6543 37.8772 37.9646 36.9298 38.7541 35.6275L38.7217 35.6438ZM38.7217 31.7629C38.9021 32.0565 38.9983 32.3945 39 32.7396C39 34.5108 36.2724 35.9498 32.9138 35.9498C29.5552 35.9498 26.8469 34.5043 26.8469 32.7234C26.8479 32.3781 26.9443 32.04 27.1252 31.7466C27.8985 33.0489 30.2055 33.9964 32.9299 33.9964C35.6543 33.9964 37.9646 33.0489 38.7541 31.7466L38.7217 31.7629ZM35.1108 23.6756L35.0396 24.4732L32.0563 24.2128C32.3035 24.531 32.478 24.9 32.5675 25.2937L31.8492 25.2286C31.7796 24.9762 31.6704 24.7366 31.5257 24.5188C31.3776 24.2762 31.163 24.0817 30.9077 23.9588L30.9627 23.3077L35.114 23.6691L35.1108 23.6756ZM32.9138 22.4286C35.6738 22.4286 37.9128 23.3142 37.9128 24.4016C37.9128 25.489 35.6738 26.3648 32.9138 26.3648C30.1538 26.3648 27.9147 25.489 27.9147 24.4114C27.9147 23.3337 30.1538 22.4384 32.9138 22.4384V22.4286ZM32.9138 21.7775C36.2724 21.7775 39 23.2165 39 24.9877C39 26.7588 36.2724 28.1978 32.9138 28.1978C29.5552 28.1978 26.8469 26.7555 26.8469 24.9844C26.8469 23.2133 29.5713 21.7742 32.9299 21.7742L32.9138 21.7775ZM38.7379 27.9992C38.903 28.2782 38.9922 28.596 38.9968 28.9206C38.9968 30.6918 36.2691 32.1308 32.9105 32.1308C29.5519 32.1308 26.8469 30.6885 26.8469 28.9174C26.8428 28.5931 26.9255 28.2737 27.0864 27.9927C27.837 29.3146 30.1602 30.2718 32.9105 30.2718C35.6608 30.2718 37.9872 29.295 38.7347 27.9927L38.7379 27.9992ZM21.5049 29.9755L21.4466 30.6266L19.0102 30.4118C19.2116 30.6717 19.3541 30.9729 19.4276 31.2941L18.8419 31.2485C18.7857 31.042 18.696 30.8462 18.5766 30.669C18.4544 30.4722 18.2795 30.3142 18.0719 30.2132L18.1107 29.6792L21.4984 29.9755H21.5049ZM19.7285 28.9695C21.9935 28.9695 23.8087 29.6922 23.8087 30.5973C23.8087 31.5024 21.9805 32.2252 19.7285 32.2252C17.4765 32.2252 15.6484 31.5024 15.6484 30.5973C15.6484 29.6922 17.4636 28.9695 19.7285 28.9695ZM19.7285 28.4355C22.4691 28.4355 24.692 29.6108 24.692 31.0564C24.692 32.502 22.4691 33.661 19.7285 33.661C16.9879 33.661 14.7618 32.4889 14.7618 31.0564C14.7618 29.6239 16.9717 28.4225 19.7285 28.4225V28.4355ZM24.4817 33.5145C24.6168 33.742 24.6894 34.0016 24.692 34.2666C24.692 35.7089 22.4691 36.8712 19.7285 36.8712C16.9879 36.8712 14.7618 35.6959 14.7618 34.2666C14.7639 34.0015 14.8365 33.7418 14.9721 33.5145C15.5837 34.5922 17.4797 35.3801 19.7285 35.3801C21.9773 35.3801 23.8701 34.5922 24.4817 33.5145ZM13.6908 6.60233C13.1019 4.85399 12.5713 3.08611 12.1248 1.29543C13.7943 -0.547331 20.2462 -0.303149 22.1002 1.26613L20.3756 5.37165C21.301 4.14749 21.6117 3.6461 22.1617 2.96564C22.3897 3.1197 22.606 3.29055 22.8088 3.4768C23.2974 3.92284 23.7342 4.41446 23.8216 5.10468C23.8489 5.35132 23.8216 5.60099 23.7416 5.83573C23.6616 6.07048 23.5309 6.28447 23.3589 6.46234L19.4341 11.079C18.9288 10.9978 18.4318 10.8714 17.9489 10.7013C18.1722 10.1707 18.444 9.58787 18.6672 9.07346L17.2306 10.633C15.9441 10.3078 14.5835 10.4748 13.4125 11.1018L9.41652 6.26048C9.20129 6.02313 9.07837 5.71564 9.07031 5.39444C9.07031 4.22888 10.8014 3.22285 11.7074 2.84192L13.6908 6.60233Z" fill="#54BD95"/>
</svg>
