<svg width="20" height="19" viewBox="0 0 20 19" fill="none" xmlns="http://www.w3.org/2000/svg">
<path fill-rule="evenodd" clip-rule="evenodd" d="M14.8587 14.5726C15.2454 14.5726 15.597 14.7322 15.8505 14.9887C15.9808 15.1204 16.0841 15.2768 16.1546 15.4489C16.225 15.6211 16.2612 15.8056 16.261 15.992C16.261 16.3824 16.1036 16.7376 15.8505 16.9941C15.7205 17.1262 15.5659 17.2309 15.3957 17.3024C15.2255 17.3738 15.043 17.4104 14.8587 17.4102C14.4724 17.4102 14.122 17.2513 13.8677 16.9941C13.6134 16.7376 13.4559 16.3824 13.4559 15.992C13.4559 15.6008 13.613 15.2459 13.8673 14.9891C14.1224 14.731 14.4724 14.5726 14.8587 14.5726ZM9.02037 17.9089H1.23087C0.895319 17.9089 0.58516 17.7678 0.361721 17.5418C0.139845 17.3173 0 17.0067 0 16.6637V1.24514C0 0.904513 0.138282 0.593525 0.36094 0.367495L0.363284 0.365124C0.587895 0.13949 0.894537 0 1.23087 0H16.2146C16.5513 0 16.8583 0.142256 17.081 0.367495C17.3056 0.592734 17.445 0.906489 17.445 1.24514V12.287C17.065 12.1522 16.6771 12.0444 16.2845 11.9653V1.24514C16.2845 1.22854 16.2755 1.21076 16.261 1.19653C16.2493 1.18231 16.2325 1.1744 16.2146 1.1744H1.23087C1.21095 1.1744 1.19337 1.18191 1.18204 1.19337L1.1797 1.19574C1.16837 1.2072 1.16095 1.22498 1.16095 1.24514V16.6637C1.16095 16.6807 1.16954 16.6981 1.18282 16.7116C1.19649 16.7254 1.21407 16.7345 1.23087 16.7345H7.95904C8.01021 16.8285 8.07193 16.919 8.1442 17.0048C8.41607 17.3264 8.70904 17.6283 9.02037 17.9089ZM5.65355 4.47989H14.0649C14.1138 4.47989 14.1544 4.52375 14.1544 4.57117V5.69934C14.1544 5.74676 14.111 5.79023 14.0649 5.79023H5.65355C5.60785 5.79023 5.5641 5.74952 5.5641 5.69934V4.57117C5.5641 4.52098 5.60472 4.47989 5.65355 4.47989ZM5.65355 12.1384H12.5091C12.2677 12.2107 12.0263 12.2957 11.7852 12.3933C11.311 12.5857 10.577 12.9706 9.86608 13.4487H5.65355C5.60707 13.4487 5.5641 13.4077 5.5641 13.3579V12.2289C5.5643 12.205 5.57379 12.1821 5.59053 12.1651C5.60726 12.1482 5.62989 12.1386 5.65355 12.1384ZM4.03479 12.0412C4.44534 12.0412 4.77855 12.3783 4.77855 12.7936C4.77855 13.2093 4.44534 13.546 4.03479 13.546C3.62424 13.546 3.29104 13.2093 3.29104 12.7936C3.29104 12.3783 3.62424 12.0412 4.03479 12.0412ZM5.65355 8.30223H14.0649C14.1138 8.30223 14.1544 8.34491 14.1544 8.39312V9.52129C14.1544 9.5695 14.1122 9.61257 14.0649 9.61257H5.65355C5.60668 9.61257 5.5641 9.57148 5.5641 9.52129V8.39312C5.5641 8.34293 5.60472 8.30223 5.65355 8.30223ZM4.03479 8.20503C4.44534 8.20503 4.77855 8.5417 4.77855 8.95701C4.77855 9.37271 4.44534 9.70978 4.03479 9.70978C3.62424 9.70978 3.29104 9.37271 3.29104 8.95701C3.29104 8.5417 3.62424 8.20503 4.03479 8.20503ZM4.03479 4.38268C4.44534 4.38268 4.77855 4.71975 4.77855 5.13506C4.77855 5.55036 4.44534 5.88743 4.03479 5.88743C3.62424 5.88743 3.29104 5.55036 3.29104 5.13506C3.29104 4.71975 3.62424 4.38268 4.03479 4.38268ZM9.80983 15.7486C11.0466 14.2359 12.6501 13.0247 14.6481 12.9829C16.7685 12.9382 18.5322 14.2189 19.913 15.7541C19.9656 15.8128 19.9963 15.8883 19.9997 15.9674C20.0031 16.0466 19.9791 16.1244 19.9318 16.1876C18.7642 17.8536 16.9212 18.9877 14.8685 18.9999C12.7556 19.0122 11.0856 17.8362 9.78991 16.1935C9.68444 16.0592 9.69616 15.8687 9.80983 15.7486ZM10.6067 15.9845C11.7653 17.3478 13.0599 18.2147 14.8657 18.2045C16.5989 18.1942 18.0732 17.3766 19.1134 16.0078C17.8907 14.716 16.4857 13.7396 14.6614 13.7775C12.9559 13.8139 11.702 14.7243 10.6067 15.9845ZM14.4634 14.8468C14.7642 14.8468 15.0071 15.0934 15.0071 15.3973C15.0071 15.7011 14.7642 15.9477 14.4634 15.9477C14.1634 15.9477 13.9196 15.7011 13.9196 15.3973C13.9196 15.0934 14.1634 14.8468 14.4634 14.8468Z" fill="#B7A58D"/>
</svg>
