<svg width="20" height="17" viewBox="0 0 20 17" fill="none" xmlns="http://www.w3.org/2000/svg">
<path d="M0.104359 5.24535L3.30336 0.688602C3.3441 0.630206 3.39767 0.582655 3.45965 0.549865C3.52164 0.517076 3.59026 0.499985 3.65989 0.5H16.3256C16.4024 0.500272 16.4778 0.521029 16.5445 0.560264C16.6113 0.599499 16.6671 0.655883 16.7066 0.723965L19.8812 5.23525C19.9574 5.31915 19.9999 5.42994 20 5.5451C19.9999 5.66125 19.9575 5.7731 19.8812 5.85831L10.4225 16.3543C10.3831 16.3982 10.3357 16.4337 10.283 16.4586C10.2303 16.4835 10.1734 16.4975 10.1155 16.4997C10.0576 16.5019 9.99986 16.4923 9.94556 16.4714C9.89126 16.4505 9.84146 16.4187 9.79903 16.3779L9.77298 16.3493L0.117383 5.86168C0.0986761 5.84081 0.0817879 5.81827 0.0669157 5.79432C0.0167686 5.71121 -0.0061911 5.61362 0.00143162 5.51597C0.00905434 5.41832 0.0468548 5.3258 0.109243 5.25209L0.104359 5.24535ZM7.32937 6.00144L10.0888 14.5694L12.7962 6.00144H7.32937ZM13.7225 6.00144L11.1258 14.2393L18.5543 6.00144H13.7225ZM9.06969 14.2646L6.40305 6.00144H1.46047L9.06969 14.2646ZM4.4983 1.4127L6.7319 4.76206L9.12016 1.4127H4.4983ZM10.8865 1.4127L13.3757 4.76206L15.51 1.4127H10.8865ZM16.3435 1.74949L14.2272 5.0837H18.6992L16.3435 1.75454V1.74949ZM12.5096 5.08875L10.0009 1.71244L7.59148 5.08875H12.5096ZM5.88046 5.08875L3.65175 1.74443L1.29767 5.08875H5.88046Z" fill="#505050"/>
</svg>
