<svg width="30" height="30" viewBox="0 0 30 30" fill="none" xmlns="http://www.w3.org/2000/svg">
<rect x="0.5" y="0.5" width="29" height="29" stroke="black"/>
<path d="M15.875 14.5V14.6553L15.9848 14.7652L20.3447 19.125L19.125 20.3447L14.125 15.3447V9.125H15.875V14.5ZM15 27.125C13.3196 27.125 11.7454 26.8064 10.2736 26.1713C8.79444 25.5331 7.51153 24.6687 6.42142 23.5786C5.3313 22.4885 4.46694 21.2056 3.82869 19.7264C3.19357 18.2546 2.875 16.6804 2.875 15C2.875 13.3196 3.19357 11.7454 3.82869 10.2736C4.46694 8.79444 5.3313 7.51153 6.42142 6.42142C7.51153 5.3313 8.79444 4.46694 10.2736 3.82869C11.7454 3.19357 13.3196 2.875 15 2.875C16.6804 2.875 18.2546 3.19357 19.7264 3.82869C21.2056 4.46694 22.4885 5.3313 23.5786 6.42142C24.6687 7.51153 25.5331 8.79444 26.1713 10.2736C26.8064 11.7454 27.125 13.3196 27.125 15C27.125 16.6804 26.8064 18.2546 26.1713 19.7264C25.5331 21.2056 24.6687 22.4885 23.5786 23.5786C22.4885 24.6687 21.2056 25.5331 19.7264 26.1713C18.2546 26.8064 16.6804 27.125 15 27.125ZM15 25.375C17.8696 25.375 20.3246 24.362 22.3433 22.3433C24.362 20.3246 25.375 17.8696 25.375 15C25.375 12.1304 24.362 9.67541 22.3433 7.65671C20.3246 5.63801 17.8696 4.625 15 4.625C12.1304 4.625 9.67541 5.63801 7.65671 7.65671C5.63801 9.67541 4.625 12.1304 4.625 15C4.625 17.8696 5.63801 20.3246 7.65671 22.3433C9.67541 24.362 12.1304 25.375 15 25.375Z" fill="#1D1B20" stroke="black" stroke-width="0.75"/>
</svg>
