<svg width="20" height="20" viewBox="0 0 20 20" fill="none" xmlns="http://www.w3.org/2000/svg">
<path d="M9.53599 19.0698C4.27957 19.0698 0 14.7907 0 9.53488C0 4.27907 4.27957 0 9.53599 0C14.7924 0 19.072 4.27907 19.072 9.53488C19.072 14.7907 14.7924 19.0698 9.53599 19.0698ZM9.53599 1.39535C5.04245 1.39535 1.39551 5.05116 1.39551 9.53488C1.39551 14.0186 5.04245 17.6744 9.53599 17.6744C14.0295 17.6744 17.6765 14.0186 17.6765 9.53488C17.6765 5.05116 14.0295 1.39535 9.53599 1.39535Z" fill="#505050"/>
<path d="M19.3046 20C19.1278 20 18.951 19.9349 18.8115 19.7953L16.9508 17.9349C16.681 17.6651 16.681 17.2186 16.9508 16.9488C17.2206 16.6791 17.6672 16.6791 17.937 16.9488L19.7977 18.8093C20.0675 19.0791 20.0675 19.5256 19.7977 19.7953C19.6581 19.9349 19.4813 20 19.3046 20Z" fill="#505050"/>
</svg>
