<svg width="29" height="28" viewBox="0 0 29 28" fill="none" xmlns="http://www.w3.org/2000/svg">
<path d="M1.20801 1.20898H6.04134L9.27967 17.3886C9.39017 17.9449 9.69281 18.4446 10.1346 18.8003C10.5764 19.1559 11.1293 19.3449 11.6963 19.334H23.4413C24.0084 19.3449 24.5612 19.1559 25.0031 18.8003C25.4449 18.4446 25.7475 17.9449 25.858 17.3886L27.7913 7.25065H7.24967M12.083 25.3757C12.083 26.043 11.542 26.584 10.8747 26.584C10.2073 26.584 9.66634 26.043 9.66634 25.3757C9.66634 24.7083 10.2073 24.1673 10.8747 24.1673C11.542 24.1673 12.083 24.7083 12.083 25.3757ZM25.3747 25.3757C25.3747 26.043 24.8337 26.584 24.1663 26.584C23.499 26.584 22.958 26.043 22.958 25.3757C22.958 24.7083 23.499 24.1673 24.1663 24.1673C24.8337 24.1673 25.3747 24.7083 25.3747 25.3757Z" stroke="#1E1E1E" stroke-width="2" stroke-linecap="round" stroke-linejoin="round"/>
</svg>
