<svg width="42" height="41" viewBox="0 0 42 41" fill="none" xmlns="http://www.w3.org/2000/svg">
<path d="M5.81543 10.3959L10.8511 3.68164H30.994L36.0297 10.3959M5.81543 10.3959V33.8959C5.81543 34.7863 6.16913 35.6402 6.79871 36.2698C7.4283 36.8994 8.2822 37.2531 9.17257 37.2531H32.6726C33.5629 37.2531 34.4168 36.8994 35.0464 36.2698C35.676 35.6402 36.0297 34.7863 36.0297 33.8959V10.3959M5.81543 10.3959H36.0297M27.6369 17.1102C27.6369 18.891 26.9295 20.5988 25.6703 21.8579C24.4111 23.1171 22.7033 23.8245 20.9226 23.8245C19.1418 23.8245 17.434 23.1171 16.1749 21.8579C14.9157 20.5988 14.2083 18.891 14.2083 17.1102" stroke="#1E1E1E" stroke-width="2" stroke-linecap="round" stroke-linejoin="round"/>
</svg>
