<svg width="19" height="21" viewBox="0 0 19 21" fill="none" xmlns="http://www.w3.org/2000/svg">
<path d="M1.60591 9.798V13.839C1.60591 17.88 3.1909 19.5 7.14455 19.5H11.8907C15.8443 19.5 17.4293 17.88 17.4293 13.839V9.798M9.52201 10.5C11.1334 10.5 12.3221 9.159 12.1636 7.512L11.5825 1.5H7.47033L6.88037 7.512C6.72187 9.159 7.91061 10.5 9.52201 10.5ZM15.0783 10.5C16.857 10.5 18.1602 9.024 17.9841 7.215L17.7375 4.74C17.4205 2.4 16.54 1.5 14.2329 1.5H11.5473L12.1636 7.809C12.3133 9.294 13.6254 10.5 15.0783 10.5ZM3.92175 10.5C5.37465 10.5 6.68666 9.294 6.82755 7.809L7.44393 1.5H4.75826C2.45123 1.5 1.57069 2.4 1.25369 4.74L1.01594 7.215C0.839833 9.024 2.14304 10.5 3.92175 10.5ZM9.52202 15C8.0515 15 7.32065 15.747 7.32065 17.25V19.5H11.7234V17.25C11.7234 15.747 10.9925 15 9.52202 15Z" stroke="#505050" stroke-width="1.5" stroke-linecap="round" stroke-linejoin="round"/>
</svg>
