<svg width="20" height="20" viewBox="0 0 20 20" fill="none" xmlns="http://www.w3.org/2000/svg">
<path d="M8.99951 1.22329H7.22184C2.77767 1.22329 1 3.00096 1 7.44514V12.7782C1 17.2223 2.77767 19 7.22184 19H12.5549C16.999 19 18.7767 17.2223 18.7767 12.7782V11.0005M12.4748 3.13428C13.0704 5.2586 14.7325 6.92072 16.8657 7.52513M13.4792 2.12991L6.47522 9.13394C6.20857 9.40059 5.94192 9.925 5.88859 10.3072L5.50639 12.9826C5.36418 13.9514 6.04858 14.6269 7.01741 14.4936L9.69281 14.1114C10.0661 14.0581 10.5905 13.7914 10.8661 13.5248L17.8701 6.52076C19.0789 5.31194 19.6478 3.90758 17.8701 2.12991C16.0924 0.352243 14.6881 0.921097 13.4792 2.12991Z" stroke="#B7A58D" stroke-width="1.5" stroke-miterlimit="10" stroke-linecap="round" stroke-linejoin="round"/>
</svg>
