<svg width="18" height="18" viewBox="0 0 18 18" fill="none" xmlns="http://www.w3.org/2000/svg">
<path d="M9 18C4.03535 18 0 13.9647 0 9C0 4.03535 4.03535 0 9 0C13.9647 0 18 4.03535 18 9C18 13.9647 13.9647 18 9 18ZM9 1.25581C4.73023 1.25581 1.25581 4.73023 1.25581 9C1.25581 13.2698 4.73023 16.7442 9 16.7442C13.2698 16.7442 16.7442 13.2698 16.7442 9C16.7442 4.73023 13.2698 1.25581 9 1.25581Z" fill="#B7A58D"/>
<path d="M12.1061 12.2902C11.9972 12.2902 11.8884 12.2651 11.7879 12.1981L9.19257 10.6493C8.54792 10.2642 8.07071 9.41861 8.07071 8.6735V5.24094C8.07071 4.89768 8.35536 4.61303 8.69862 4.61303C9.04187 4.61303 9.32652 4.89768 9.32652 5.24094V8.6735C9.32652 8.97489 9.57769 9.41861 9.83722 9.56931L12.4326 11.1181C12.734 11.294 12.8261 11.6791 12.6502 11.9805C12.5247 12.1814 12.3154 12.2902 12.1061 12.2902Z" fill="#B7A58D"/>
</svg>
