<svg width="28" height="24" viewBox="0 0 28 24" fill="none" xmlns="http://www.w3.org/2000/svg">
<path fill-rule="evenodd" clip-rule="evenodd" d="M15.774 0.473233C16.4284 0.848738 17.0271 1.45125 17.5161 2.28151L17.5673 2.37541L17.6263 2.47594L26.8112 18.1425C28.589 21.064 26.7478 24.0353 23.3216 23.9938V24H4.37519C4.32799 24 4.28132 23.9979 4.23508 23.9942C1.11826 23.9528 -0.314696 21.1458 0.970337 18.4599C1.01474 18.3664 1.0661 18.28 1.11884 18.1906L10.4922 2.27679L10.4894 2.27514C10.9756 1.45752 11.5819 0.853036 12.2513 0.472456C13.356 -0.155387 14.6703 -0.159841 15.774 0.473233ZM13.9842 17.5686C14.6719 17.5686 15.2294 18.1161 15.2294 18.7915C15.2294 19.467 14.6719 20.0145 13.9842 20.0145C13.2965 20.0145 12.739 19.467 12.739 18.7915C12.739 18.1161 13.2965 17.5686 13.9842 17.5686ZM14.9144 15.7362C14.8725 16.7672 13.0947 16.7685 13.054 15.7358C12.8742 13.9693 12.4144 9.95873 12.429 8.29874C12.4439 7.78733 12.8756 7.48434 13.4277 7.36878C13.5981 7.33325 13.7853 7.31575 13.9739 7.31601C14.1634 7.31642 14.3511 7.33476 14.5216 7.37044C15.0921 7.48972 15.5399 7.80509 15.5399 8.32583L15.5376 8.37788L14.9144 15.7362ZM2.4826 19.1544L11.9362 3.10461C13.0826 1.17732 14.9012 1.12148 16.0693 3.10461L25.3663 18.9621C26.2721 20.4271 25.8958 22.3927 23.3216 22.3539H4.37519C2.63406 22.3931 1.58865 21.0231 2.4826 19.1544Z" fill="#505050"/>
</svg>
