<svg width="20" height="24" viewBox="0 0 20 24" fill="none" xmlns="http://www.w3.org/2000/svg">
<path d="M10.0107 24C8.84368 24 7.68737 23.6429 6.7773 22.9399L2.17345 19.3579C0.952891 18.4094 0 16.4231 0 14.8497V6.54748C0 4.82901 1.20985 2.99895 2.76231 2.39637L8.10493 0.309659C9.16488 -0.10322 10.8351 -0.10322 11.8951 0.309659L17.2377 2.39637C18.7901 2.99895 20 4.82901 20 6.54748V14.8385C20 16.4231 19.0471 18.3982 17.8266 19.3467L13.2227 22.9287C12.334 23.6429 11.1777 24 10.0107 24ZM8.67238 1.88306L3.32976 3.96978C2.4197 4.32686 1.6167 5.53202 1.6167 6.55864V14.8497C1.6167 15.9098 2.33405 17.3939 3.13704 18.0188L7.7409 21.6008C8.97216 22.5605 11.0492 22.5605 12.2912 21.6008L16.8951 18.0188C17.7088 17.3828 18.4154 15.9098 18.4154 14.8497V6.54748C18.4154 5.53202 17.6124 4.32686 16.7024 3.95862L11.3597 1.87191C10.6317 1.60409 9.38972 1.60409 8.67238 1.88306Z" fill="#505050"/>
<path d="M12.3126 14.4368C12.1092 14.4368 11.9058 14.3587 11.7452 14.1913L7.19486 9.4488C6.88437 9.12519 6.88437 8.58956 7.19486 8.26596C7.50536 7.94235 8.01927 7.94235 8.32977 8.26596L12.8801 13.0085C13.1906 13.3321 13.1906 13.8677 12.8801 14.1913C12.7195 14.3476 12.5161 14.4368 12.3126 14.4368Z" fill="#505050"/>
<path d="M7.70873 14.4815C7.5053 14.4815 7.30188 14.4034 7.14128 14.236C6.83079 13.9124 6.83079 13.3767 7.14128 13.0531L11.6916 8.3106C12.0021 7.98699 12.516 7.98699 12.8265 8.3106C13.137 8.63421 13.137 9.16984 12.8265 9.49344L8.27618 14.236C8.12629 14.4034 7.91216 14.4815 7.70873 14.4815Z" fill="#505050"/>
</svg>
