<svg width="20" height="20" viewBox="0 0 20 20" fill="none" xmlns="http://www.w3.org/2000/svg">
<path d="M10.9 1H7.3C2.8 1 1 2.8 1 7.3V12.7C1 17.2 2.8 19 7.3 19H12.7C17.2 19 19 17.2 19 12.7V8.2M15.4 6.4V1M15.4 1L17.2 2.8M15.4 1L13.6 2.8M1.60298 16.255L6.03998 13.276C6.75098 12.799 7.77698 12.853 8.41598 13.402L8.71298 13.663C9.41498 14.266 10.549 14.266 11.251 13.663L14.995 10.45C15.697 9.847 16.831 9.847 17.533 10.45L19 11.71M9.1 6.4C9.1 7.39411 8.29411 8.2 7.3 8.2C6.30589 8.2 5.5 7.39411 5.5 6.4C5.5 5.40589 6.30589 4.6 7.3 4.6C8.29411 4.6 9.1 5.40589 9.1 6.4Z" stroke="#505050" stroke-width="1.5" stroke-linecap="round" stroke-linejoin="round"/>
</svg>
