<svg width="84" height="100" viewBox="0 0 84 100" fill="none" xmlns="http://www.w3.org/2000/svg">
<path d="M17.4075 80.8219C15.1043 80.8219 15.1043 77.3247 17.4075 77.3247H37.518C37.4773 77.9067 37.4566 78.4899 37.4561 79.0733C37.4561 79.6613 37.4781 80.2443 37.518 80.8219H17.4075ZM52.5334 4.74232V10.4316C52.5334 23.2669 55.5312 24.0119 66.0565 24.0119H70.3692L52.5334 4.74232ZM71.0001 27.403H66.7953C54.8493 27.403 49.1378 26.603 49.1378 10.5369V3.39111H11.6222C7.37569 3.39111 3.89576 6.86648 3.89576 11.1074V62.8712H43.41C42.4985 63.9437 41.6788 65.0907 40.9596 66.3002H3.89576V83.8596C3.89576 88.0864 7.38998 91.5755 11.6222 91.5755H40.799C41.4883 92.7683 42.2746 93.9025 43.1501 94.9666H11.6222C5.51641 94.9666 0.5 89.9574 0.5 83.8596V11.1074C0.5 4.99528 5.50153 6.36222e-07 11.6222 6.36222e-07H52.0134C52.2764 -0.000227059 52.5358 0.0606647 52.7711 0.177857C53.0064 0.29505 53.2112 0.465327 53.3692 0.675213L73.9378 22.8972C74.3667 23.3599 74.3956 23.8088 74.3956 24.3667V56.9858C73.3029 56.3999 72.1679 55.8961 71.0001 55.4788V27.403Z" fill="#A3A3A3"/>
<path fill-rule="evenodd" clip-rule="evenodd" d="M62.545 58.147C74.1179 58.147 83.5 67.5167 83.5 79.0737C83.5 90.6305 74.1179 100 62.545 100C50.972 100 41.5897 90.6305 41.5897 79.0737C41.5897 67.5167 50.972 58.147 62.545 58.147Z" fill="#54BD95"/>
<path d="M65.9087 78.1199L69.3043 79.3056C71.5498 80.1667 73.8597 78.5797 72.1188 76.6041C70.0006 74.1713 66.7829 70.8279 64.4421 68.6013C62.9882 67.1502 62.1451 67.1375 60.6862 68.5894C58.095 71.1301 55.5511 73.9529 53.0184 76.5791C51.2069 78.5457 53.4669 80.2058 55.8123 79.3056L59.1726 78.1319C58.9263 81.3132 58.6196 84.3548 58.4336 87.534C58.4336 88.1193 58.9236 88.5873 59.4956 88.6313C61.5138 88.6313 63.5745 88.6786 65.5875 88.6313C66.1587 88.5873 66.6488 88.1187 66.6488 87.534L65.9087 78.1199Z" fill="white"/>
<path d="M9.604 51.9999V35.8999H12.755V51.9999H9.604Z" fill="#A3A3A3"/>
<path d="M21.9872 44.6399L23.2062 39.6029L24.1952 35.8999H27.0702L28.1052 51.9999H25.0922L24.6552 43.2139H24.5402L22.8842 49.6999H20.9982L19.3422 43.2139H19.2272L18.7902 51.9999H15.7772L16.8122 35.8999H19.6872L20.6762 39.6029L21.8952 44.6399H21.9872Z" fill="#A3A3A3"/>
<path d="M37.9621 51.9999L37.4791 49.4469H33.8451L33.3621 51.9999H30.2341L33.3391 35.8999H38.1001L41.0441 51.9999H37.9621ZM35.6161 38.8899L34.7191 44.2489L34.2131 46.9859H37.0881L36.5591 44.2489L35.6621 38.8899H35.6161Z" fill="#A3A3A3"/>
<path d="M50.9449 51.9999H46.0689C44.9649 50.9879 44.1599 49.7842 43.6539 48.3889C43.1479 46.9936 42.8949 45.5369 42.8949 44.0189C42.8949 42.4856 43.2016 40.9752 43.8149 39.4879C44.4282 38.0006 45.2869 36.8046 46.3909 35.8999H51.9799V38.6599H47.7019C47.3032 39.1199 46.9582 39.8482 46.6669 40.8449C46.3756 41.8262 46.2299 42.8766 46.2299 43.9959C46.2299 45.0999 46.3602 46.1579 46.6209 47.1699C46.8969 48.1666 47.2342 48.8872 47.6329 49.3319H49.8409V43.0759H52.8769V46.9399C52.8769 49.0559 52.2329 50.7426 50.9449 51.9999Z" fill="#A3A3A3"/>
<path d="M55.8241 51.9999V35.8999H64.0811V38.6599H58.9751V42.5009H63.5291V45.1689H58.9751V49.3319H64.1731V51.9999H55.8241Z" fill="#A3A3A3"/>
</svg>
