<svg width="50" height="60" viewBox="0 0 50 60" fill="none" xmlns="http://www.w3.org/2000/svg">
<path d="M10.1853 48.4932C8.79776 48.4932 8.79776 46.3948 10.1853 46.3948H22.3C22.2755 46.744 22.263 47.0939 22.2627 47.444C22.2627 47.7968 22.2759 48.1466 22.3 48.4932H10.1853ZM31.3454 2.84539V6.25895C31.3454 13.9601 33.1513 14.4071 39.4919 14.4071H42.0899L31.3454 2.84539ZM42.4699 16.4418H39.9369C32.7406 16.4418 29.2999 15.9618 29.2999 6.32217V2.03467H6.70012C4.14198 2.03467 2.04564 4.11989 2.04564 6.66443V37.7227H25.8494C25.3003 38.3662 24.8065 39.0544 24.3732 39.7801H2.04564V50.3158C2.04564 52.8519 4.15059 54.9453 6.70012 54.9453H24.2765C24.6917 55.661 25.1654 56.3415 25.6928 56.98H6.70012C3.02193 56.98 0 53.9745 0 50.3158V6.66443C0 2.99717 3.01297 3.81734e-07 6.70012 3.81734e-07H31.0322C31.1906 -0.000136235 31.3469 0.0363988 31.4886 0.106714C31.6304 0.17703 31.7537 0.279196 31.8489 0.405128L44.2396 13.7383C44.498 14.0159 44.5154 14.2853 44.5154 14.62V34.1915C43.8572 33.8399 43.1734 33.5377 42.4699 33.2873V16.4418Z" fill="#A3A3A3"/>
<path d="M14.5831 28.8954H12.5574V31.2357H9.44092V21.5487H14.3494C16.583 21.5487 17.6996 22.7421 17.6996 25.1291C17.6996 26.4414 17.4087 27.4126 16.827 28.0428C16.609 28.2804 16.3075 28.4822 15.9234 28.6473C15.539 28.8128 15.0922 28.8954 14.5831 28.8954ZM12.5574 24.0286V26.4155H13.2743C13.6482 26.4155 13.921 26.3769 14.0925 26.2993C14.2638 26.2217 14.3494 26.0436 14.3494 25.7646V24.6797C14.3494 24.4006 14.2638 24.2222 14.0925 24.1449C13.921 24.0674 13.6482 24.0286 13.2743 24.0286H12.5574ZM18.6348 31.2357V21.5487H22.9978C24.7535 21.5487 25.9585 21.9207 26.613 22.6648C27.2676 23.4086 27.5948 24.6511 27.5948 26.3923C27.5948 28.1334 27.2676 29.3758 26.613 30.1198C25.9585 30.8639 24.7535 31.2357 22.9978 31.2357H18.6348ZM23.0446 24.0286H21.7512V28.7558H23.0446C23.4705 28.7558 23.7796 28.7069 23.9717 28.6087C24.1639 28.5105 24.2601 28.2858 24.2601 27.9345V24.8501C24.2601 24.4988 24.1639 24.2742 23.9717 24.176C23.7796 24.0777 23.4705 24.0286 23.0446 24.0286ZM34.4513 27.6399H31.8021V31.2357H28.6856V21.5487H35.0745L34.6849 24.0286H31.8021V25.3305H34.4513V27.6399Z" fill="#A3A3A3"/>
<path fill-rule="evenodd" clip-rule="evenodd" d="M37.3765 34.8882C44.3481 34.8882 50 40.51 50 47.4442C50 54.3783 44.3481 60 37.3765 60C30.4048 60 24.7528 54.3783 24.7528 47.4442C24.7528 40.51 30.4048 34.8882 37.3765 34.8882Z" fill="#54BD95"/>
<path d="M39.4028 46.872L41.4484 47.5833C42.8011 48.1 44.1926 47.1478 43.1439 45.9625C41.8678 44.5028 39.9295 42.4967 38.5193 41.1608C37.6435 40.2901 37.1356 40.2825 36.2567 41.1536C34.6958 42.6781 33.1633 44.3718 31.6376 45.9475C30.5463 47.1274 31.9078 48.1235 33.3206 47.5833L35.3449 46.8791C35.1966 48.7879 35.0118 50.6129 34.8998 52.5204C34.8998 52.8716 35.1949 53.1524 35.5395 53.1788C36.7553 53.1788 37.9967 53.2071 39.2093 53.1788C39.5534 53.1524 39.8487 52.8712 39.8487 52.5204L39.4028 46.872Z" fill="white"/>
</svg>
