<svg width="84" height="100" viewBox="0 0 84 100" fill="none" xmlns="http://www.w3.org/2000/svg">
<path d="M17.4075 80.8219C15.1043 80.8219 15.1043 77.3247 17.4075 77.3247H37.518C37.4773 77.9067 37.4566 78.4899 37.4561 79.0733C37.4561 79.6613 37.4781 80.2443 37.518 80.8219H17.4075ZM52.5334 4.74232V10.4316C52.5334 23.2669 55.5312 24.0119 66.0565 24.0119H70.3692L52.5334 4.74232ZM71.0001 27.403H66.7953C54.8493 27.403 49.1378 26.603 49.1378 10.5369V3.39111H11.6222C7.37569 3.39111 3.89576 6.86648 3.89576 11.1074V62.8712H43.41C42.4985 63.9437 41.6788 65.0907 40.9596 66.3002H3.89576V83.8596C3.89576 88.0864 7.38998 91.5755 11.6222 91.5755H40.799C41.4883 92.7683 42.2746 93.9025 43.1501 94.9666H11.6222C5.51641 94.9666 0.5 89.9574 0.5 83.8596V11.1074C0.5 4.99528 5.50153 6.36223e-07 11.6222 6.36223e-07H52.0134C52.2764 -0.000227059 52.5358 0.0606647 52.7711 0.177857C53.0064 0.29505 53.2112 0.465327 53.3692 0.675213L73.9378 22.8972C74.3667 23.3599 74.3956 23.8088 74.3956 24.3667V56.9858C73.3029 56.3999 72.1679 55.8961 71.0001 55.4788V27.403Z" fill="#A3A3A3"/>
<path fill-rule="evenodd" clip-rule="evenodd" d="M62.545 58.147C74.1179 58.147 83.5 67.5167 83.5 79.0737C83.5 90.6305 74.1179 100 62.545 100C50.972 100 41.5897 90.6305 41.5897 79.0737C41.5897 67.5167 50.972 58.147 62.545 58.147Z" fill="#B7A58D"/>
<path d="M65.9087 78.1199L69.3043 79.3056C71.5498 80.1667 73.8597 78.5797 72.1188 76.6041C70.0006 74.1713 66.7829 70.8279 64.4421 68.6013C62.9882 67.1502 62.1451 67.1375 60.6862 68.5894C58.095 71.1301 55.5511 73.9529 53.0184 76.5791C51.2069 78.5457 53.4669 80.2058 55.8123 79.3056L59.1726 78.1319C58.9263 81.3132 58.6196 84.3548 58.4336 87.534C58.4336 88.1193 58.9236 88.5873 59.4956 88.6313C61.5138 88.6313 63.5745 88.6786 65.5875 88.6313C66.1587 88.5873 66.6488 88.1187 66.6488 87.534L65.9087 78.1199Z" fill="white"/>
<path d="M21.0854 36L17.9008 52H13.6846L10.5 36H13.7295L14.9629 43.4057L15.7254 48.2057H15.86L16.6225 43.4057L17.856 36H21.0854Z" fill="#A3A3A3"/>
<path d="M23.4048 52V36H26.4773V52H23.4048Z" fill="#A3A3A3"/>
<path d="M32.8106 49.3486H34.829C35.2476 48.8152 35.5765 48.0381 35.8158 47.0171C36.0699 45.9962 36.197 44.9829 36.197 43.9771C36.197 41.5848 35.756 39.84 34.8738 38.7429H32.8106V49.3486ZM29.7605 52V36H36.2643C38.3874 37.92 39.4489 40.5257 39.4489 43.8171C39.4489 47.0933 38.4546 49.821 36.4661 52H29.7605Z" fill="#A3A3A3"/>
<path d="M42.3143 52V36H50.3655V38.7429H45.3867V42.56H49.8272V45.2114H45.3867V49.3486H50.4552V52H42.3143Z" fill="#A3A3A3"/>
<path d="M60.4051 36C61.4517 36.8686 62.2291 38.0343 62.7375 39.4971C63.2458 40.96 63.5 42.4686 63.5 44.0229C63.5 45.5619 63.2533 47.0248 62.7599 48.4114C62.2665 49.7981 61.4816 50.9943 60.4051 52H55.7852C54.7087 50.9943 53.9238 49.7981 53.4304 48.4114C52.937 47.0248 52.6903 45.5619 52.6903 44.0229C52.6903 42.4686 52.9445 40.96 53.4528 39.4971C53.9612 38.0343 54.7386 36.8686 55.7852 36H60.4051ZM57.2878 49.3486H58.9025C59.2763 48.9067 59.5903 48.1905 59.8444 47.2C60.1136 46.1943 60.2481 45.1352 60.2481 44.0229C60.2481 42.9105 60.121 41.8667 59.8669 40.8914C59.6127 39.901 59.2987 39.1848 58.9249 38.7429H57.2878C56.914 39.1848 56.5926 39.901 56.3234 40.8914C56.0693 41.8667 55.9422 42.9105 55.9422 44.0229C55.9422 45.1352 56.0693 46.1943 56.3234 47.2C56.5926 48.1905 56.914 48.9067 57.2878 49.3486Z" fill="#A3A3A3"/>
</svg>
